<?xml version="1.0" encoding="utf-8"?>
<!-- Generator: Adobe Illustrator 17.0.0, SVG Export Plug-In . SVG Version: 6.00 Build 0)  -->
<!DOCTYPE svg PUBLIC "-//W3C//DTD SVG 1.1//EN" "http://www.w3.org/Graphics/SVG/1.1/DTD/svg11.dtd">
<svg version="1.1" id="Layer_1" xmlns="http://www.w3.org/2000/svg" xmlns:xlink="http://www.w3.org/1999/xlink" x="0px" y="0px"
	 width="253.36px" height="310.386px" viewBox="0 0 253.36 310.386" enable-background="new 0 0 253.36 310.386"
	 xml:space="preserve">
<path fill="#FFFFFF" d="M60.102,284.844"/>
<path fill="#FFFFFF" d="M27.535,71.449"/>
<g>
	<path fill="#FFFFFF" d="M19.891,33.28h-4.645c-6.627,0-12,6.064-12,13.545v29.55c2.94-6.097,8.851-4.757,8.851-4.757h7.794V33.28z"
		/>
	<path fill="#FFFFFF" d="M236.546,33.28H65.274v38.338h172.879c0,0,7.175-0.658,10.48,5.742V46.825
		C248.634,39.344,243.221,33.28,236.546,33.28z"/>
</g>
<path fill="#FFFFFF" d="M40.868,38.104"/>
<path fill="#FFFFFF" d="M57.629,33.28C57.629,0.136,42.668,0,42.668,0S27.535,0,27.535,33.28c0,33.848,0,38.169,0,38.169h9.429
	c-0.001,0.046-0.006,0.09-0.006,0.136V104.6c0,3.639,2.763,6.589,6.172,6.589s6.172-2.95,6.172-6.589V71.585
	c0-0.046-0.006-0.091-0.006-0.136h8.334C57.629,71.449,57.629,38.5,57.629,33.28z"/>
<path fill="#FFFFFF" d="M238.231,80.342H58.715v28.362c0,6.627-5.373,12-12,12h-7.401c-6.627,0-12-5.373-12-12V80.342H12.096
	c0,0-10.473-2.107-10.473,12.024c0,14.131,0,149.719,0,152.049s3.449,6.914,10.667,10.667c7.218,3.752,93.869,48.899,102.594,53.333
	c8.725,4.434,22.885,0,22.885,0L240.945,254.5c0,0,9.309-4.822,9.309-9.309s0-139.804,0-152.825S238.231,80.342,238.231,80.342z
	 M178.859,222.191c0,0-0.136,4.404-4.404,4.404s-81.883,0-81.883,0s-17.377-0.704-17.377-17.377c0-16.673,0-51.058,0-51.058
	s-0.308-18.924,18.924-18.924s80.336,0,80.336,0s4.329,0.007,4.328,3.214c0,3.206,0,13.136,0,13.136s-0.061,4.329-4.329,4.329
	c-4.268,0-74.653,0-74.653,0s-5.028-0.188-5.028,5.028s0,33.87,0,38.264c0,4.394,4.344,4.344,4.344,4.344h74.862
	c0,0,4.88,0.21,4.88,4.88C178.859,217.102,178.859,222.191,178.859,222.191z"/>
<path fill="#FFFFFF" d="M276.214,185.296"/>
</svg>
